<svg xmlns="http://www.w3.org/2000/svg" viewBox="0 0 128 128" role="img" aria-label="Caveman logo">
  <rect width="128" height="128" rx="24" fill="#6B7280"/>
  <path d="M30 45c0-18 15-31 34-31 9 0 18 3 25 9 6 5 9 12 9 20v14H30V45Z" fill="#374151"/>
  <circle cx="49" cy="63" r="7" fill="#111827"/>
  <circle cx="79" cy="63" r="7" fill="#111827"/>
  <path d="M44 88c7 6 14 9 20 9 7 0 14-3 20-9" fill="none" stroke="#111827" stroke-linecap="round" stroke-width="8"/>
  <path d="M33 53c3-16 15-28 31-28 9 0 16 3 22 8" fill="none" stroke="#D1D5DB" stroke-linecap="round" stroke-width="6"/>
</svg>
